<svg width="22" height="37" viewBox="0 0 22 37" fill="none" xmlns="http://www.w3.org/2000/svg">
<path d="M7.86956 1.65892C7.86956 1.65892 6.59541 2.59742 6.52851 2.86604C6.46201 3.13425 6.32998 4.94695 6.46432 5.08129C6.59866 5.21563 7.37231 6.19043 7.37231 6.19043L9.08368 5.62236L9.55129 3.80973L8.81041 2.06309L7.86956 1.65892V1.65892ZM13.1389 0.423837L11.9656 1.4632L11.8336 3.27589L12.7413 4.1836L13.8827 3.98376L14.8879 2.57515L14.9521 0.627798L13.1389 0.423837ZM18.5815 3.25147L16.8028 3.48426L16.3679 4.79295L16.2685 5.76613L17.2772 6.84238L18.4515 6.27316L19.457 5.06597C19.457 5.06597 19.6239 4.29392 19.4892 4.15917L18.5815 3.25147V3.25147ZM20.4344 7.98809L18.7907 8.82496C18.7907 8.82496 17.5506 10.1998 17.5509 10.4012C17.5511 10.6027 18.1235 11.9797 18.1235 11.9797L19.7011 11.6801L21.2773 10.3726L21.3087 8.92919L20.4344 7.98809V7.98809ZM11.335 6.86712C11.2009 6.93421 9.22105 7.63686 9.22105 7.63686L7.91394 9.21265L6.10227 10.0827L5.03008 11.6931L5.33499 13.674L6.98202 14.9187L8.89498 14.7534L10.4433 17.441C10.4433 17.441 12.6599 18.0484 12.727 17.9143C12.7941 17.7803 14.7054 16.4064 14.7054 16.4064C14.7054 16.4064 15.0039 13.822 14.6346 13.5862C14.6346 13.5862 15.9741 11.3051 15.0654 9.65933C14.1566 8.01277 12.846 7.03763 12.846 7.03763L11.335 6.86712V6.86712ZM8.53282 19.9567C8.53282 19.9567 6.75485 20.7261 6.72165 20.894C6.68844 21.062 5.98582 22.7731 5.98582 22.7731C5.98582 22.7731 6.86011 23.9829 6.99417 23.9159C7.12863 23.8492 8.60499 23.1797 8.60499 23.1797L9.8452 21.8717L8.53322 19.9562L8.53282 19.9567ZM14.5445 21.543L12.5649 22.1107L11.6273 24.0569L13.7439 24.899L14.9514 24.0949L15.5534 22.753L14.5445 21.543ZM17.3037 26.1125C17.1696 26.1796 14.9547 26.5121 14.9547 26.5121L14.0502 28.1558L15.2269 29.2657L17.2744 28.8318L18.2457 27.3893L17.3037 26.1125ZM16.2706 31.5163L14.0217 31.748L12.7137 32.6527L12.8831 33.6266L14.7982 34.7372C14.7982 34.7372 16.0734 34.2688 16.174 34.1682C16.2746 34.0676 17.1455 32.8603 17.1455 32.8603L16.2706 31.5163ZM7.76903 25.7633C7.29249 26.0809 5.08486 26.6998 5.08486 26.6998C5.08486 26.6998 3.13685 26.2942 2.93551 26.3608C2.73458 26.4278 1.1915 27.4997 1.1915 27.4997L0.656516 29.2449L1.12872 30.7229L3.61505 32.0691L3.51813 34.7883C3.51813 34.7883 4.62811 36.3006 5.73593 36.2683C6.84376 36.2368 8.25247 35.2985 8.25247 35.2985L8.85424 33.4864L10.6986 32.1124C10.6986 32.1124 12.4072 29.53 11.5324 28.253C10.658 26.9763 8.37277 25.3612 7.76903 25.7633Z" fill="#F9E2CD"/>
</svg>
